<?xml version="1.0" encoding="UTF-8" ?>
<!DOCTYPE svg PUBLIC "-//W3C//DTD SVG 1.1//EN" "http://www.w3.org/Graphics/SVG/1.1/DTD/svg11.dtd">
<svg width="1536pt" height="1024pt" viewBox="0 0 1536 1024" version="1.1" xmlns="http://www.w3.org/2000/svg">
<g id="#fdfdfdff">
<path fill="#fdfdfd" opacity="1.00" d=" M 1052.62 480.00 C 1048.46 474.83 1050.75 467.19 1055.88 463.63 C 1052.48 468.39 1051.77 474.33 1052.62 480.00 Z" />
</g>
<g id="#487b2fff">
<path fill="#487b2f" opacity="1.00" d=" M 745.95 39.27 C 773.16 37.26 800.53 38.50 827.60 41.63 C 867.58 46.34 906.73 57.37 943.62 73.40 C 971.37 85.54 997.48 101.21 1021.80 119.21 C 1042.65 134.74 1062.14 152.11 1079.60 171.39 C 1101.41 195.78 1120.54 222.58 1136.30 251.26 C 1128.65 252.16 1120.76 253.77 1114.60 258.71 C 1108.57 249.32 1102.93 239.68 1096.49 230.57 C 1081.69 209.74 1065.21 190.06 1046.85 172.28 C 1000.29 127.89 942.63 95.03 880.40 78.52 C 843.48 68.58 805.18 64.25 766.98 64.71 C 721.73 65.90 676.67 74.10 633.93 89.07 C 581.25 107.99 532.35 137.82 492.09 176.79 C 487.25 171.85 481.22 168.31 474.80 165.83 C 474.88 163.89 474.39 161.57 476.25 160.28 C 531.29 104.19 603.50 66.06 679.97 48.95 C 701.64 43.84 723.77 40.92 745.95 39.27 Z" />
<path fill="#487b2f" opacity="1.00" d=" M 312.24 106.38 C 322.17 92.20 338.78 83.01 356.04 82.00 C 370.29 80.73 384.75 85.47 396.06 94.08 C 404.62 101.25 411.97 110.46 415.16 121.29 C 423.69 120.15 432.64 121.43 440.04 126.00 C 452.86 133.74 460.53 149.10 459.35 163.99 C 459.22 169.41 457.42 174.56 455.88 179.69 C 469.41 180.39 482.26 188.17 489.18 199.80 C 498.51 214.79 497.79 234.54 489.91 249.98 C 500.01 250.43 509.65 255.09 516.49 262.48 C 526.34 272.40 530.25 287.52 527.20 301.07 C 525.07 311.74 518.31 321.29 509.20 327.18 C 496.49 335.85 478.30 335.25 466.12 325.89 C 464.67 324.34 462.64 325.47 461.01 325.99 C 453.67 328.63 445.21 329.44 437.92 326.22 C 436.47 325.46 434.80 325.46 433.40 326.30 C 429.71 327.97 425.90 329.50 422.69 332.03 C 419.88 330.58 414.75 329.93 415.45 325.69 C 422.39 323.36 429.18 320.59 436.17 318.36 C 433.04 313.74 429.64 308.84 429.39 303.07 C 428.68 295.17 431.93 287.31 437.42 281.70 C 436.37 280.53 435.33 279.36 434.30 278.19 C 428.41 282.44 421.50 285.21 414.29 286.15 C 410.99 286.52 407.62 287.59 405.71 290.50 C 403.67 286.34 399.17 284.60 394.90 283.75 C 393.19 283.97 391.76 285.08 390.24 285.79 C 391.24 284.92 392.22 284.02 393.18 283.10 C 387.95 279.38 383.02 275.24 378.52 270.65 C 374.73 266.85 370.95 262.58 370.02 257.10 C 369.85 256.89 369.52 256.45 369.36 256.24 C 367.53 252.78 367.78 248.80 367.04 245.08 C 362.69 241.89 356.58 240.17 351.45 242.46 C 347.35 244.18 344.41 248.52 345.08 253.05 C 346.00 262.03 348.33 270.81 350.75 279.50 C 351.92 284.37 353.80 289.04 356.10 293.49 C 353.59 296.63 350.27 298.91 346.85 300.94 C 344.32 297.50 341.72 294.04 340.30 289.98 C 343.75 291.08 346.94 292.83 349.97 294.82 C 346.34 288.38 343.29 281.39 342.81 273.93 C 342.45 267.05 341.11 260.28 340.14 253.48 C 338.40 253.65 336.66 253.82 334.93 254.00 C 335.85 257.93 336.84 261.92 336.56 265.99 C 336.38 271.49 333.77 276.48 331.28 281.26 C 329.38 285.53 324.66 287.24 321.72 290.65 C 317.26 289.73 312.06 288.12 307.93 290.91 C 303.84 293.40 302.33 298.49 302.37 303.03 C 303.08 310.68 308.50 317.55 315.75 320.09 C 321.92 323.24 329.35 321.40 335.45 324.60 C 337.13 329.60 335.18 335.15 333.04 339.77 C 331.32 342.77 328.85 345.23 326.32 347.56 C 317.14 357.24 303.05 361.80 289.91 359.69 C 273.81 357.42 259.91 344.66 256.24 328.83 C 255.01 323.51 255.03 317.89 256.35 312.59 C 247.79 311.56 239.33 309.00 232.27 303.92 C 219.12 294.87 210.99 278.94 211.41 262.97 C 211.91 247.82 219.58 232.84 232.10 224.16 C 237.20 220.19 243.44 218.23 249.59 216.57 C 244.24 203.74 244.04 188.67 249.99 176.01 C 254.44 166.09 262.38 157.71 272.27 153.11 C 281.22 148.67 291.50 147.52 301.32 149.03 C 299.60 134.12 303.17 118.46 312.24 106.38 Z" />
<path fill="#487b2f" opacity="1.00" d=" M 485.31 380.66 C 489.43 373.09 496.36 366.70 504.99 364.97 C 517.00 362.45 529.75 369.26 535.31 380.03 C 540.09 375.33 545.32 370.57 552.08 369.11 C 564.26 366.14 577.73 372.46 583.57 383.49 C 587.21 378.21 591.60 373.19 597.55 370.49 C 607.08 365.60 619.42 367.51 627.32 374.64 C 630.55 377.61 633.51 380.96 635.53 384.89 C 640.02 379.48 646.07 375.17 653.04 373.70 C 663.54 370.99 675.01 375.94 681.28 384.55 C 682.60 386.39 683.86 388.27 685.17 390.12 C 690.52 384.45 697.04 379.12 705.12 378.44 C 716.71 376.64 728.04 384.26 732.46 394.78 C 739.31 391.34 748.54 388.42 755.16 393.86 C 755.01 396.24 756.55 399.41 754.01 400.97 C 747.86 405.98 746.21 414.42 746.87 421.96 C 743.87 424.35 740.89 426.75 738.20 429.48 C 659.19 429.57 580.18 429.42 501.17 429.33 C 500.45 423.95 499.14 417.95 494.47 414.57 C 489.89 410.83 483.04 411.09 478.23 414.26 C 471.74 418.52 468.19 425.68 463.13 431.32 C 454.16 431.26 445.19 431.18 436.22 431.44 C 433.46 427.49 428.65 424.21 428.69 418.95 C 428.00 411.37 432.19 403.55 439.00 400.09 C 442.33 398.28 446.08 397.46 449.83 397.21 C 449.35 389.27 454.25 381.43 461.66 378.51 C 469.28 374.97 478.30 376.37 485.31 380.66 Z" />
<path fill="#487b2f" opacity="1.00" d=" M 884.03 410.87 C 887.91 404.93 893.64 399.65 900.82 398.30 C 907.96 396.65 915.77 398.91 921.15 403.84 C 923.41 405.94 925.02 408.61 926.81 411.10 C 932.75 405.14 941.59 401.01 950.05 403.54 C 956.33 404.85 961.21 409.45 964.51 414.76 C 968.99 412.63 973.96 410.87 979.00 411.90 C 988.70 413.44 995.96 423.06 995.31 432.78 C 947.34 432.77 899.36 432.68 851.39 432.53 C 850.08 426.09 849.27 419.05 844.66 413.98 C 848.69 410.57 851.91 405.96 857.02 404.04 C 866.28 400.01 877.70 403.10 884.03 410.87 Z" />
<path fill="#487b2f" opacity="1.00" d=" M 411.89 429.93 C 419.59 437.18 425.24 446.31 430.70 455.29 C 438.37 468.41 444.58 482.42 448.78 497.03 C 449.86 500.35 448.50 503.73 448.05 507.03 C 445.95 520.26 445.14 533.87 447.41 547.14 C 447.54 548.24 447.92 549.33 448.45 550.31 C 449.52 531.37 451.48 512.42 455.99 493.96 C 461.27 474.69 468.05 455.61 478.59 438.54 C 480.54 435.70 482.06 432.42 484.86 430.28 C 485.35 442.86 484.41 455.45 483.22 467.98 C 482.03 481.70 480.62 495.40 479.39 509.12 C 478.64 522.67 474.39 535.81 474.33 549.42 C 477.48 539.00 480.21 528.43 484.46 518.39 C 491.85 503.61 504.15 491.57 518.40 483.36 C 522.24 481.61 525.90 478.80 530.24 478.64 C 526.24 486.10 521.41 493.08 517.47 500.57 C 509.71 515.84 503.32 531.81 497.93 548.07 C 504.81 540.68 512.70 533.94 522.09 529.98 C 531.88 525.95 542.40 522.72 553.12 524.05 C 551.56 526.27 549.08 527.48 546.97 529.07 C 531.68 540.24 519.35 555.30 511.05 572.28 C 481.03 572.38 451.01 572.17 421.00 572.21 C 419.71 571.92 417.07 572.97 416.96 570.94 C 414.87 558.20 411.70 545.55 406.20 533.82 C 398.73 518.14 388.69 503.75 377.34 490.64 C 375.89 488.79 374.05 487.13 373.43 484.79 C 379.66 485.65 385.45 488.22 391.06 490.95 C 405.97 498.21 418.41 510.22 426.67 524.56 C 427.23 525.43 427.89 526.28 428.56 527.11 C 426.07 516.50 425.29 505.60 423.11 494.94 C 421.01 483.24 418.75 471.57 416.62 459.88 C 415.06 449.89 412.57 440.04 411.89 429.93 Z" />
<path fill="#487b2f" opacity="1.00" d=" M 436.95 431.97 C 445.58 431.37 454.24 431.90 462.89 431.90 C 461.90 434.16 460.77 436.35 459.63 438.53 L 459.34 438.58 C 453.23 439.55 446.80 440.59 440.72 438.96 C 439.20 436.77 438.06 434.37 436.95 431.97 Z" />
<path fill="#487b2f" opacity="1.00" d=" M 265.75 449.81 C 274.42 446.31 284.71 446.31 292.96 451.00 C 300.38 454.86 305.77 461.72 308.90 469.39 C 313.93 466.93 319.41 464.89 325.10 465.29 C 334.28 465.87 343.09 471.71 346.79 480.22 C 348.82 484.37 349.55 488.98 349.84 493.55 C 353.78 494.11 357.83 494.78 361.41 496.62 C 367.01 499.95 370.73 505.60 373.75 511.22 C 377.26 517.01 375.74 524.14 374.61 530.41 C 381.88 530.15 388.94 534.12 392.22 540.65 C 395.80 547.83 398.76 556.25 396.33 564.26 C 396.01 565.67 395.69 567.08 395.40 568.50 C 343.27 568.75 291.14 568.56 239.01 568.62 C 221.59 568.45 204.13 568.90 186.73 568.42 C 181.04 562.34 176.82 554.51 176.31 546.08 C 175.19 535.76 179.42 525.02 187.31 518.30 C 192.34 514.33 198.52 511.81 204.93 511.41 C 199.66 495.99 208.21 477.21 223.88 472.06 C 231.36 468.94 239.52 470.53 246.87 473.10 C 249.18 463.01 256.17 453.94 265.75 449.81 Z" />
<path fill="#487b2f" opacity="1.00" d=" M 168.03 594.93 C 168.54 589.11 174.49 585.23 180.05 585.56 C 418.02 585.55 656.00 585.61 893.98 585.61 C 923.32 585.74 952.68 585.35 982.02 585.75 C 991.70 588.86 1001.94 587.71 1011.95 587.88 C 1022.95 587.92 1033.96 587.75 1044.97 588.06 C 1048.90 587.96 1052.92 588.20 1056.75 587.12 C 1064.87 592.58 1074.60 594.99 1084.27 595.48 C 1091.95 597.93 1100.06 597.18 1107.99 597.30 C 1180.99 597.21 1253.99 597.31 1326.99 597.24 C 1336.96 597.20 1346.66 592.78 1353.61 585.70 C 1359.94 586.08 1367.22 584.11 1372.68 588.29 C 1377.03 591.46 1377.09 597.44 1376.30 602.26 C 1375.82 603.80 1374.96 605.74 1373.00 605.40 C 974.69 605.50 576.37 605.36 178.06 605.42 C 175.14 605.29 172.13 605.76 169.27 605.07 C 167.23 602.10 167.93 598.29 168.03 594.93 Z" />
<path fill="#487b2f" opacity="1.00" d=" M 461.50 796.65 C 465.50 796.33 469.52 796.34 473.52 796.57 C 474.38 803.64 473.55 811.07 473.92 818.28 C 480.86 818.40 487.81 818.40 494.75 818.25 C 494.81 811.14 494.73 804.02 494.88 796.92 C 498.77 795.77 503.22 796.52 507.31 796.62 C 507.01 814.80 507.49 832.99 507.16 851.17 C 503.05 851.28 498.93 851.32 494.82 851.17 C 494.72 843.76 494.89 836.35 494.78 828.94 C 487.81 828.93 480.84 828.75 473.89 829.13 C 473.91 836.45 473.81 843.77 473.86 851.10 C 469.79 851.32 465.71 851.24 461.63 851.18 C 461.43 833.01 461.60 814.83 461.50 796.65 Z" />
<path fill="#487b2f" opacity="1.00" d=" M 526.59 796.70 C 538.02 796.04 549.49 796.60 560.93 796.41 C 561.29 799.88 561.19 803.38 561.14 806.87 C 553.62 807.01 546.11 807.16 538.60 807.13 C 538.60 810.90 538.65 814.68 538.68 818.46 C 545.26 818.62 551.85 818.64 558.44 818.51 C 558.68 821.99 559.08 825.56 558.24 829.00 C 551.70 828.84 545.15 828.93 538.60 828.91 C 538.64 832.86 538.65 836.83 538.70 840.79 C 546.38 840.93 554.07 840.66 561.75 841.13 C 561.76 844.46 561.76 847.79 561.80 851.12 C 550.07 851.46 538.34 851.27 526.62 851.22 C 526.47 833.05 526.49 814.87 526.59 796.70 Z" />
<path fill="#487b2f" opacity="1.00" d=" M 578.63 796.67 C 582.50 796.39 586.42 796.21 590.30 796.56 C 597.82 807.61 604.83 819.02 612.43 830.02 C 612.38 818.86 612.38 807.69 612.47 796.53 C 616.46 796.35 620.46 796.31 624.45 796.64 C 624.36 814.85 624.59 833.06 624.37 851.26 C 620.50 851.36 616.63 851.31 612.77 851.38 C 605.22 840.22 598.27 828.67 590.60 817.59 C 590.63 828.60 590.79 839.64 590.47 850.65 C 586.90 851.97 582.50 850.91 578.62 851.25 C 578.55 833.05 578.58 814.86 578.63 796.67 Z" />
<path fill="#487b2f" opacity="1.00" d=" M 643.46 796.64 C 647.44 796.17 651.47 796.25 655.46 796.55 C 663.16 807.56 670.09 819.12 677.75 830.18 C 677.66 819.01 677.70 807.84 677.70 796.67 C 681.64 796.17 685.62 796.44 689.59 796.40 C 689.77 814.51 689.73 832.64 689.62 850.76 C 685.93 851.91 681.70 850.90 677.80 851.26 C 670.26 840.24 663.71 828.55 655.88 817.73 C 655.54 828.80 655.79 839.88 655.66 850.96 C 651.69 851.42 647.69 851.20 643.71 851.18 C 643.40 833.00 643.83 814.82 643.46 796.64 Z" />
<path fill="#487b2f" opacity="1.00" d=" M 709.38 796.58 C 713.23 796.56 717.50 795.76 721.15 796.89 C 721.61 814.98 721.25 833.09 721.28 851.19 C 717.14 851.28 713.01 851.31 708.89 851.16 C 708.80 834.43 708.87 817.71 708.82 800.99 C 709.04 799.55 708.41 797.74 709.38 796.58 Z" />
<path fill="#487b2f" opacity="1.00" d=" M 740.83 796.71 C 744.83 796.47 749.29 795.77 753.06 796.92 C 760.55 807.78 767.34 819.13 774.76 830.05 C 774.72 819.02 774.72 807.98 774.86 796.96 C 778.35 795.54 782.68 796.76 786.50 796.52 C 787.01 814.67 786.67 832.84 786.76 851.00 C 782.84 851.38 778.89 851.22 774.97 851.30 C 767.65 840.00 760.48 828.60 753.06 817.38 C 753.32 828.57 753.03 839.77 753.14 850.97 C 749.07 851.40 744.97 851.28 740.90 851.16 C 740.68 833.01 740.87 814.86 740.83 796.71 Z" />
<path fill="#487b2f" opacity="1.00" d=" M 809.09 805.01 C 817.09 794.90 832.76 792.68 843.65 799.22 C 847.63 801.65 850.24 805.66 852.01 809.88 C 848.47 811.38 844.79 812.47 841.16 813.68 C 838.03 805.28 825.37 804.30 820.02 810.94 C 816.67 814.76 815.85 820.08 815.93 825.00 C 816.20 829.24 816.99 833.79 819.89 837.10 C 824.93 843.18 835.83 843.11 840.48 836.59 C 841.03 834.66 840.99 832.61 841.24 830.64 C 837.42 830.65 833.60 830.77 829.81 830.34 C 829.74 827.28 829.71 824.22 830.11 821.19 C 837.72 820.90 845.34 820.73 852.96 821.13 C 853.41 827.83 852.96 834.56 852.30 841.23 C 845.26 850.14 832.79 854.52 821.78 851.20 C 812.04 848.85 805.02 839.77 803.72 830.05 C 802.56 821.48 803.55 811.99 809.09 805.01 Z" />
<path fill="#487b2f" opacity="1.00" d=" M 895.47 815.93 C 897.38 805.96 905.75 797.41 915.91 796.01 C 926.55 793.81 940.09 798.46 943.26 809.79 C 939.77 810.99 936.38 812.46 932.96 813.84 C 929.39 805.08 915.98 804.14 910.77 811.72 C 906.63 818.17 906.73 826.66 909.20 833.71 C 912.69 842.85 926.82 844.35 932.37 836.35 C 932.42 834.42 932.53 832.49 932.69 830.58 C 928.97 830.68 925.24 830.70 921.53 830.49 C 921.36 827.35 921.36 824.20 921.60 821.07 C 929.34 821.30 937.08 820.57 944.82 821.06 C 945.07 827.71 944.67 834.36 944.00 840.97 C 938.39 849.17 927.78 853.17 918.06 852.15 C 909.99 851.56 901.96 847.10 898.21 839.77 C 894.42 832.49 894.02 823.88 895.47 815.93 Z" />
<path fill="#487b2f" opacity="1.00" d=" M 962.21 796.80 C 973.65 795.88 985.20 796.54 996.69 796.50 C 996.81 799.95 996.81 803.41 996.78 806.88 C 989.30 806.83 981.82 807.04 974.34 807.14 C 974.32 810.96 974.36 814.79 974.35 818.62 C 980.99 818.68 987.63 818.52 994.28 818.62 C 994.40 822.02 994.50 825.44 994.10 828.84 C 987.50 828.99 980.89 828.75 974.29 828.95 C 974.35 832.90 974.37 836.85 974.34 840.80 C 981.97 840.80 989.60 840.91 997.23 840.91 C 997.34 844.34 997.36 847.78 997.31 851.23 C 985.59 851.30 973.86 851.34 962.14 851.16 C 962.15 833.04 962.08 814.91 962.21 796.80 Z" />
<path fill="#487b2f" opacity="1.00" d=" M 1014.87 797.04 C 1018.40 795.61 1022.86 796.84 1026.75 796.43 C 1027.51 814.63 1027.08 832.93 1027.05 851.17 C 1022.93 851.27 1018.82 851.25 1014.72 851.18 C 1014.68 833.14 1014.45 815.08 1014.87 797.04 Z" />
<path fill="#487b2f" opacity="1.00" d=" M 1046.66 796.65 C 1053.44 796.07 1060.26 796.53 1067.07 796.39 C 1074.10 796.36 1082.07 798.71 1085.67 805.26 C 1088.74 811.69 1088.75 820.30 1083.88 825.87 C 1082.07 827.92 1079.61 829.18 1077.20 830.35 C 1081.40 837.26 1085.53 844.21 1089.65 851.17 C 1085.14 851.32 1080.64 851.29 1076.14 851.19 C 1072.54 844.94 1068.96 838.70 1065.56 832.34 C 1063.39 832.35 1061.22 832.35 1059.06 832.35 C 1058.77 838.61 1059.02 844.87 1058.87 851.13 C 1054.76 851.35 1050.66 851.33 1046.56 851.25 C 1046.71 833.05 1046.52 814.85 1046.66 796.65 M 1058.84 807.11 C 1058.96 812.15 1058.91 817.19 1058.87 822.24 C 1062.81 822.10 1066.87 822.65 1070.73 821.64 C 1076.12 819.89 1076.90 811.69 1072.40 808.57 C 1068.29 806.19 1063.34 807.40 1058.84 807.11 Z" />
<path fill="#487b2f" opacity="1.00" d=" M 216.37 815.55 C 282.28 815.26 348.20 815.60 414.11 815.41 C 416.11 815.21 417.98 816.97 418.01 818.97 C 418.08 821.63 417.84 824.31 417.98 826.98 C 416.99 828.18 415.80 829.31 414.09 828.93 C 348.38 828.86 282.68 828.97 216.97 828.89 C 215.53 829.14 214.70 827.89 213.83 827.03 C 214.63 823.38 212.06 817.38 216.37 815.55 Z" />
<path fill="#487b2f" opacity="1.00" d=" M 1132.35 815.53 C 1197.25 815.37 1262.16 815.49 1327.05 815.46 C 1330.52 815.23 1330.97 819.35 1330.73 821.93 C 1330.70 824.28 1331.42 828.54 1328.04 828.83 C 1272.05 829.02 1216.04 828.82 1160.04 828.91 C 1150.45 828.80 1140.84 829.08 1131.26 828.78 C 1128.76 827.44 1129.86 824.25 1129.62 821.99 C 1129.55 819.67 1129.41 816.04 1132.35 815.53 Z" />
<path fill="#487b2f" opacity="1.00" d=" M 399.25 855.20 C 411.03 855.28 422.85 854.84 434.62 855.35 C 475.64 889.76 520.81 919.63 569.99 941.09 C 616.60 961.80 666.36 975.45 717.05 981.19 C 766.58 987.26 816.94 984.90 866.00 976.09 C 943.66 962.36 1017.72 929.86 1081.23 883.23 C 1093.30 874.40 1105.09 865.16 1116.22 855.17 C 1128.07 854.99 1139.92 855.24 1151.77 855.17 C 1110.68 895.10 1063.28 928.61 1011.79 953.78 C 974.59 971.77 935.42 985.84 895.07 994.84 C 848.50 1005.35 800.57 1009.63 752.88 1007.70 C 707.47 1006.19 662.43 997.83 618.94 984.83 C 570.85 970.10 524.92 948.53 482.65 921.31 C 458.16 905.25 434.76 887.51 412.95 867.97 C 408.32 863.78 403.47 859.81 399.25 855.20 Z" />
<path fill="#487b2f" opacity="1.00" d=" M 642.09 877.10 C 659.98 874.65 678.34 874.64 696.08 878.28 C 706.38 880.59 716.64 883.77 725.68 889.36 C 746.25 900.99 760.95 922.41 764.17 945.85 C 765.10 951.42 764.85 957.07 764.89 962.69 C 752.76 949.65 740.41 936.62 725.86 926.24 C 716.65 919.40 706.70 913.59 696.28 908.81 C 693.28 907.51 690.42 905.80 687.19 905.17 C 712.70 924.42 738.06 945.04 756.27 971.65 C 743.21 972.32 729.89 972.76 717.12 969.49 C 704.58 966.28 692.45 960.78 682.48 952.44 C 666.58 939.69 656.09 921.43 649.32 902.46 C 646.45 894.14 643.85 885.72 642.09 877.10 Z" />
<path fill="#487b2f" opacity="1.00" d=" M 840.95 879.14 C 858.86 874.42 877.60 874.85 895.89 876.58 C 897.12 876.77 898.51 876.69 899.60 877.46 C 899.72 880.34 898.40 883.05 897.80 885.84 C 892.29 907.00 883.27 927.90 868.07 943.94 C 857.85 954.98 844.81 963.28 830.40 967.64 C 815.67 972.69 799.85 972.63 784.50 971.65 C 800.47 947.99 822.09 928.94 844.53 911.61 C 847.41 909.21 850.78 907.45 853.44 904.79 C 836.71 911.34 820.78 920.27 807.00 931.85 C 795.69 940.93 785.60 951.41 776.18 962.41 C 774.90 942.10 781.66 921.40 795.06 906.04 C 806.82 892.27 823.51 883.39 840.95 879.14 Z" />
</g>
<g id="#121312ff">
<path fill="#121312" opacity="1.00" d=" M 882.27 128.11 C 886.88 124.88 892.70 125.10 898.04 124.34 C 907.16 123.92 914.39 133.23 912.62 142.01 C 920.21 147.78 926.92 154.61 934.15 160.81 C 938.85 164.80 943.17 169.21 947.77 173.31 C 948.36 172.90 949.54 172.08 950.13 171.66 C 963.13 183.43 976.16 195.16 989.29 206.78 C 995.61 212.77 1002.62 218.07 1008.44 224.58 C 1004.66 227.16 1001.79 230.74 999.02 234.32 C 991.64 228.66 984.81 222.34 977.87 216.17 C 968.32 208.05 958.94 199.74 949.51 191.49 C 946.48 188.88 943.33 186.37 940.67 183.38 C 941.03 182.41 941.41 181.44 941.80 180.48 C 931.30 171.36 921.09 161.91 910.21 153.25 C 908.79 164.50 907.01 175.71 905.48 186.95 C 915.44 194.15 926.50 199.61 937.03 205.90 C 958.10 217.50 978.84 229.71 1000.18 240.81 C 1003.42 237.12 1005.80 232.74 1009.26 229.24 C 1012.75 225.61 1019.04 225.80 1022.58 229.28 C 1026.11 232.11 1026.83 236.82 1027.40 241.02 C 1028.28 246.59 1029.67 252.07 1030.55 257.64 C 1035.17 260.93 1039.47 264.78 1042.60 269.57 C 1046.08 274.34 1047.38 280.19 1049.20 285.71 C 1062.64 327.36 1076.07 369.00 1089.30 410.71 C 1090.26 415.25 1089.68 419.96 1089.74 424.57 C 1086.34 424.83 1082.60 425.83 1081.05 429.21 C 1077.19 435.05 1082.93 443.41 1089.82 441.97 C 1089.64 447.61 1090.56 453.38 1089.04 458.90 C 1087.29 467.85 1087.96 476.99 1087.83 486.04 C 1087.73 490.63 1089.41 494.98 1090.55 499.36 C 1083.03 499.47 1075.51 499.37 1067.99 499.43 C 1064.81 499.53 1061.68 498.54 1058.96 496.96 C 1056.10 495.16 1055.01 491.79 1054.28 488.69 C 1050.28 488.31 1045.85 488.14 1042.66 485.41 C 1036.94 479.45 1036.71 468.95 1042.38 462.88 C 1040.02 455.33 1038.46 447.52 1035.70 440.11 C 1035.04 439.98 1033.72 439.72 1033.06 439.59 C 1026.92 418.36 1020.80 397.12 1014.14 376.05 C 1011.75 367.64 1008.81 359.40 1006.66 350.94 C 1005.81 348.91 1007.98 347.71 1009.24 346.62 C 1004.37 329.58 998.86 312.71 993.79 295.73 C 999.80 299.97 1007.01 304.43 1008.80 312.11 C 1012.03 322.67 1015.08 333.28 1018.37 343.81 C 1020.40 343.76 1023.25 343.61 1023.71 346.23 C 1032.45 374.80 1040.89 403.47 1049.49 432.08 C 1050.72 434.60 1048.84 437.27 1050.21 439.77 C 1052.75 446.13 1053.55 453.20 1056.84 459.23 C 1059.14 452.59 1061.75 446.05 1064.67 439.65 C 1065.66 437.57 1066.61 435.30 1068.65 434.00 C 1054.72 398.47 1039.20 363.58 1024.32 328.44 C 1020.02 318.71 1015.93 308.49 1008.19 300.90 C 1001.79 294.39 993.86 289.72 986.58 284.32 C 953.13 260.61 920.92 235.18 887.88 210.95 C 889.01 214.64 891.72 217.47 894.32 220.20 C 883.76 245.88 872.37 271.22 861.90 296.94 C 850.93 322.20 840.72 347.80 830.27 373.27 C 832.14 379.50 829.97 387.10 823.82 390.11 C 822.43 394.06 821.53 398.16 820.56 402.23 C 822.72 404.39 824.96 406.83 825.36 410.01 C 825.70 413.92 824.93 417.82 824.18 421.65 C 820.36 421.70 816.07 421.42 812.86 423.87 C 806.02 429.16 797.67 432.37 791.60 438.69 C 783.34 447.31 776.50 457.94 774.88 469.97 C 772.75 481.69 777.05 493.62 783.82 503.08 C 790.91 512.24 799.96 519.93 810.44 524.95 C 806.22 524.78 802.17 523.58 798.11 522.54 C 786.56 519.37 775.11 515.73 764.11 510.96 C 754.92 506.78 747.46 499.29 742.47 490.59 C 736.56 479.74 735.43 466.34 739.69 454.72 C 743.46 444.32 751.17 434.96 761.68 430.94 C 760.33 426.15 759.13 420.92 761.11 416.12 C 762.49 411.86 766.49 409.07 770.76 408.23 C 771.65 397.56 772.52 386.88 773.39 376.21 C 766.76 370.79 767.48 359.32 774.62 354.69 C 777.84 352.56 781.78 353.83 785.35 353.88 C 791.07 339.97 796.24 325.83 801.92 311.89 C 804.07 313.42 806.52 314.43 809.00 315.34 C 806.49 323.42 802.84 331.07 800.09 339.06 C 798.14 344.43 796.23 349.82 793.83 355.01 C 796.93 355.98 798.80 358.88 801.76 360.13 C 808.94 363.43 816.29 367.43 824.48 366.72 C 819.75 364.18 814.64 362.48 809.82 360.15 C 816.28 339.51 822.32 318.73 829.24 298.24 C 835.13 279.09 841.81 260.20 847.78 241.07 C 850.74 230.92 854.61 221.04 857.52 210.86 C 858.10 208.34 855.33 204.47 852.59 205.40 C 848.65 215.94 844.61 226.45 840.47 236.91 C 842.73 238.56 841.08 241.08 840.44 243.09 C 833.40 261.57 826.35 280.04 819.50 298.58 C 817.35 303.73 815.90 309.19 812.99 314.00 C 808.83 313.24 804.94 311.45 801.06 309.85 C 798.52 308.67 800.43 305.68 800.89 303.77 C 810.19 281.21 818.83 258.40 827.71 235.68 C 828.03 234.12 829.45 233.51 830.82 233.11 C 834.92 221.36 839.93 209.96 844.04 198.22 C 838.98 191.95 841.33 182.18 847.56 177.62 C 850.65 175.12 855.01 174.62 857.93 171.98 C 863.09 162.12 868.24 152.24 873.45 142.39 C 876.16 137.53 877.36 131.38 882.27 128.11 M 896.22 133.18 C 889.64 135.79 889.41 146.32 895.86 149.19 C 900.50 151.68 905.75 147.20 906.42 142.56 C 907.83 137.02 901.75 130.69 896.22 133.18 M 857.28 185.28 C 855.16 186.66 853.57 189.45 854.97 191.91 C 856.11 195.34 861.23 197.01 863.38 193.56 C 867.02 189.62 862.40 182.00 857.28 185.28 M 1014.35 233.46 C 1009.53 235.22 1010.03 242.53 1014.31 244.63 C 1017.10 246.59 1020.52 243.84 1021.21 241.02 C 1022.61 237.14 1018.52 231.91 1014.35 233.46 M 1012.48 263.63 C 1004.59 265.42 1002.45 277.31 1009.17 281.75 C 1014.27 285.75 1022.33 282.19 1023.76 276.15 C 1025.93 269.60 1019.54 261.44 1012.48 263.63 M 818.24 373.24 C 814.92 374.61 813.61 379.85 816.97 381.90 C 819.86 384.63 825.07 381.84 824.71 377.97 C 825.04 374.78 821.24 371.47 818.24 373.24 M 790.94 376.60 C 789.99 387.53 788.20 398.38 787.35 409.32 C 791.26 407.83 795.18 406.34 799.16 405.03 C 800.24 397.35 801.99 389.70 804.38 382.35 C 807.29 381.83 809.63 384.80 812.04 386.16 C 811.02 385.01 810.01 383.87 809.01 382.73 C 803.02 380.58 796.92 378.78 790.94 376.60 M 774.48 422.98 C 775.27 426.65 777.16 429.99 779.48 432.92 C 780.25 428.75 776.86 425.08 778.18 420.98 C 778.69 418.37 780.19 416.13 781.12 413.67 C 776.74 414.19 774.61 419.06 774.48 422.98 M 1052.62 480.00 C 1051.77 474.33 1052.48 468.39 1055.88 463.63 C 1050.75 467.19 1048.46 474.83 1052.62 480.00 Z" />
<path fill="#121312" opacity="1.00" d=" M 369.36 256.24 C 369.52 256.45 369.85 256.89 370.02 257.10 C 370.95 262.58 374.73 266.85 378.52 270.65 C 377.91 277.41 377.24 284.27 378.72 290.97 C 379.26 290.85 380.34 290.62 380.88 290.50 C 380.43 295.20 378.06 299.38 377.04 303.94 C 375.05 311.08 374.98 318.60 375.70 325.93 C 377.20 335.35 378.27 344.96 381.68 353.94 C 389.04 346.23 396.37 338.44 404.64 331.67 C 407.56 328.59 411.71 327.43 415.45 325.69 C 414.75 329.93 419.88 330.58 422.69 332.03 C 413.89 337.15 407.03 344.87 400.73 352.74 C 392.92 363.37 386.02 375.42 384.96 388.85 C 384.65 395.87 384.69 402.92 385.40 409.92 C 386.91 432.21 389.32 454.80 397.23 475.86 C 391.05 472.23 384.24 469.46 377.17 468.20 C 370.69 466.81 363.18 469.65 360.04 475.65 C 358.84 473.11 356.88 471.08 355.36 468.76 C 359.81 445.82 360.85 422.36 360.70 399.04 C 360.31 392.42 360.69 385.47 357.75 379.32 C 352.16 367.06 342.68 356.78 331.43 349.46 C 329.84 348.59 328.24 347.33 326.32 347.56 C 328.85 345.23 331.32 342.77 333.04 339.77 C 335.09 340.74 337.11 341.78 338.96 343.09 C 346.32 348.19 354.27 352.64 360.53 359.15 C 360.82 346.74 359.72 334.36 359.54 321.96 C 359.57 320.21 358.57 318.72 357.77 317.25 C 354.40 311.64 350.54 306.34 346.85 300.94 C 350.27 298.91 353.59 296.63 356.10 293.49 C 357.84 296.72 360.57 299.23 363.08 301.85 C 368.46 287.28 369.26 271.61 369.36 256.24 Z" />
<path fill="#121312" opacity="1.00" d=" M 1132.93 267.48 C 1159.70 264.50 1186.30 260.01 1213.07 257.13 C 1237.10 258.60 1261.05 261.30 1285.07 263.05 C 1291.84 263.39 1297.21 269.48 1298.00 276.00 C 1301.21 314.12 1305.37 352.17 1308.21 390.33 C 1300.60 391.24 1292.82 392.29 1285.91 395.83 C 1269.60 403.08 1257.69 417.84 1251.01 434.08 C 1245.92 446.48 1244.00 459.90 1243.09 473.19 C 1222.74 473.78 1202.36 473.34 1182.00 473.44 C 1178.92 473.23 1175.50 474.09 1172.82 472.20 C 1172.78 446.14 1172.42 420.08 1172.79 394.03 C 1174.40 369.06 1177.91 344.25 1181.70 319.53 C 1184.07 305.37 1186.21 291.13 1189.62 277.18 C 1171.04 279.19 1152.49 281.58 1133.96 284.02 C 1131.66 284.12 1129.71 285.98 1129.19 288.16 C 1121.82 322.94 1116.72 358.15 1111.83 393.36 C 1122.42 392.30 1132.87 390.19 1143.38 388.58 C 1151.13 386.89 1159.44 386.60 1166.36 382.33 C 1166.18 386.27 1166.04 390.20 1165.77 394.13 C 1159.07 393.87 1152.43 394.97 1145.87 396.19 C 1134.45 397.68 1123.18 400.37 1111.63 400.79 C 1111.46 403.73 1111.37 406.67 1111.24 409.61 C 1119.59 408.83 1128.00 407.66 1135.88 404.67 C 1145.48 401.59 1155.46 400.16 1165.40 398.68 C 1165.29 423.58 1165.57 448.49 1165.25 473.39 C 1144.17 473.51 1123.09 473.38 1102.01 473.45 C 1100.33 473.73 1098.26 472.95 1098.34 470.99 C 1098.15 458.31 1098.32 445.62 1098.30 432.93 C 1098.42 419.59 1097.71 406.18 1099.35 392.90 C 1102.21 370.89 1104.80 348.82 1108.98 327.01 C 1111.68 312.01 1114.78 297.08 1117.49 282.07 C 1118.87 274.59 1125.26 268.24 1132.93 267.48 M 1205.84 287.11 C 1199.33 318.90 1195.01 351.11 1191.20 383.32 C 1195.41 383.48 1199.63 383.82 1203.85 383.72 C 1205.59 374.87 1207.59 365.56 1213.54 358.47 C 1219.73 351.07 1229.95 348.47 1239.27 348.86 C 1239.35 325.23 1239.26 301.60 1239.45 277.97 C 1232.34 277.46 1225.23 276.68 1218.11 276.47 C 1212.01 276.32 1206.81 281.24 1205.84 287.11 M 1254.63 279.13 C 1254.53 313.69 1254.54 348.25 1254.65 382.80 C 1264.97 379.61 1275.33 376.53 1285.87 374.12 C 1288.26 373.65 1291.49 371.97 1290.77 369.02 C 1289.05 342.31 1286.17 315.68 1284.35 288.98 C 1284.89 285.31 1282.59 280.77 1278.46 280.82 C 1270.51 280.32 1262.57 279.69 1254.63 279.13 Z" />
<path fill="#121312" opacity="1.00" d=" M 1315.37 391.16 C 1321.22 391.39 1327.10 390.78 1332.93 391.43 C 1340.52 392.89 1346.13 400.33 1346.06 407.97 C 1346.15 434.31 1345.91 460.64 1346.22 486.98 C 1346.70 493.69 1340.77 499.81 1334.11 499.82 C 1312.40 500.04 1290.68 499.82 1268.98 499.93 C 1265.25 499.56 1264.66 504.17 1263.36 506.68 C 1238.22 506.96 1213.07 506.79 1187.93 506.85 C 1169.63 506.77 1151.32 507.05 1133.02 506.70 C 1132.22 504.50 1131.87 501.69 1129.98 500.19 C 1121.98 499.54 1113.93 500.09 1105.92 499.92 C 1102.52 500.12 1099.77 497.56 1097.92 495.01 C 1095.14 490.78 1096.41 485.56 1096.23 480.84 C 1170.45 480.55 1244.68 480.88 1318.90 480.64 C 1319.83 456.13 1319.14 431.56 1319.41 407.02 C 1319.65 401.45 1317.79 396.10 1315.37 391.16 Z" />
<path fill="#121312" opacity="1.00" d=" M 814.70 424.63 C 817.71 421.77 822.18 422.09 826.03 422.16 C 829.58 422.43 834.39 423.25 835.35 427.36 C 840.15 452.98 845.81 478.60 855.07 503.04 C 860.17 518.09 873.15 528.20 882.61 540.37 C 869.85 539.23 857.60 535.02 845.09 532.47 C 829.79 529.30 814.02 525.43 801.43 515.71 C 789.63 506.75 780.29 493.20 779.42 478.08 C 779.01 465.55 784.12 452.89 793.20 444.22 C 798.96 438.67 805.46 433.20 813.49 431.48 C 813.41 429.21 812.56 426.25 814.70 424.63 Z" />
<path fill="#121312" opacity="1.00" d=" M 440.72 438.96 C 446.80 440.59 453.23 439.55 459.34 438.58 C 456.15 445.03 453.09 451.57 450.78 458.40 C 447.57 451.84 444.30 445.32 440.72 438.96 Z" />
<path fill="#121312" opacity="1.00" d=" M 502.07 440.36 C 512.43 440.74 522.85 439.84 533.18 440.73 C 533.17 447.61 533.22 454.48 533.19 461.36 C 523.55 461.17 514.76 465.89 507.10 471.29 C 504.55 471.35 502.01 471.44 499.48 471.57 C 500.61 461.19 501.87 450.80 502.07 440.36 Z" />
<path fill="#121312" opacity="1.00" d=" M 537.84 440.59 C 561.11 440.11 584.39 440.49 607.66 440.36 C 607.69 450.66 607.94 460.99 607.43 471.27 C 586.97 471.90 566.50 471.60 546.04 471.73 C 544.94 467.70 542.19 464.16 538.19 462.73 C 537.52 455.36 538.36 447.97 537.84 440.59 Z" />
<path fill="#121312" opacity="1.00" d=" M 611.20 440.48 C 622.33 440.33 633.46 440.41 644.59 440.44 C 644.74 450.67 644.30 460.93 644.39 471.17 C 633.20 470.91 622.02 471.80 610.84 471.17 C 611.00 460.94 610.34 450.68 611.20 440.48 Z" />
<path fill="#121312" opacity="1.00" d=" M 649.19 440.43 C 660.71 440.51 672.24 440.40 683.76 440.44 C 684.18 445.61 683.59 450.79 683.76 455.97 C 683.61 460.77 684.18 465.65 683.39 470.40 C 682.02 470.98 680.44 470.71 679.00 470.85 C 668.92 470.76 658.85 471.41 648.77 471.06 C 648.90 460.85 648.99 450.64 649.19 440.43 Z" />
<path fill="#121312" opacity="1.00" d=" M 900.53 440.46 C 917.36 440.44 934.18 440.29 951.01 440.43 C 952.04 440.49 954.21 440.10 953.83 441.91 C 953.90 450.56 953.76 459.21 953.82 467.86 C 936.07 468.48 918.29 468.70 900.53 468.63 C 900.21 459.25 900.32 449.84 900.53 440.46 Z" />
<path fill="#121312" opacity="1.00" d=" M 957.71 440.61 C 974.95 440.27 992.22 440.28 1009.46 440.59 C 1009.99 449.03 1009.56 457.50 1009.69 465.96 C 1010.03 468.12 1007.34 467.49 1006.06 467.72 C 989.97 467.67 973.89 468.04 957.81 467.82 C 957.57 458.76 957.76 449.68 957.71 440.61 Z" />
<path fill="#121312" opacity="1.00" d=" M 687.90 440.60 C 702.21 440.26 716.54 440.46 730.87 440.42 C 725.23 449.46 722.13 460.06 722.70 470.75 C 711.49 470.65 700.28 470.77 689.07 470.63 C 687.31 470.60 688.10 468.10 687.85 467.01 C 687.85 458.21 687.90 449.40 687.90 440.60 Z" />
<path fill="#121312" opacity="1.00" d=" M 852.31 440.46 C 866.86 440.62 881.42 440.04 895.95 440.64 C 896.18 450.00 896.12 459.37 895.79 468.71 C 883.59 468.84 871.44 469.79 859.22 469.64 C 856.47 460.02 854.69 450.16 852.31 440.46 Z" />
<path fill="#121312" opacity="1.00" d=" M 980.71 473.57 C 988.81 473.34 996.91 473.06 1005.02 473.08 C 1006.45 473.32 1008.35 472.54 1009.51 473.66 C 1010.12 482.19 1009.39 490.76 1009.79 499.31 C 1003.82 499.64 997.83 499.09 991.87 499.59 C 988.09 500.02 984.35 500.75 980.55 500.97 C 980.37 491.84 980.86 482.71 980.71 473.57 Z" />
<path fill="#121312" opacity="1.00" d=" M 920.04 474.84 C 923.19 474.34 926.38 474.17 929.56 474.49 C 930.21 483.46 929.07 492.49 930.30 501.43 C 929.79 502.73 928.21 502.34 927.15 502.53 C 918.28 502.80 909.40 503.04 900.53 503.27 C 900.10 493.90 900.58 484.51 900.35 475.13 C 906.91 475.11 913.48 475.04 920.04 474.84 Z" />
<path fill="#121312" opacity="1.00" d=" M 934.40 474.51 C 948.21 473.76 962.06 473.80 975.89 473.68 C 976.10 482.83 976.51 492.03 975.77 501.16 C 961.74 501.76 947.70 502.13 933.66 502.20 C 934.00 492.98 933.21 483.66 934.40 474.51 Z" />
<path fill="#121312" opacity="1.00" d=" M 860.81 475.93 C 872.49 475.69 884.15 475.18 895.84 475.13 C 895.98 484.49 895.82 493.86 895.79 503.23 C 887.51 503.96 879.18 503.81 870.88 504.07 C 867.01 494.87 863.80 485.44 860.81 475.93 Z" />
<path fill="#121312" opacity="1.00" d=" M 648.88 477.69 C 669.94 477.24 691.00 477.28 712.06 476.89 C 713.48 476.90 714.90 477.12 716.32 477.35 C 716.01 487.17 715.89 497.01 715.68 506.84 C 704.51 507.72 693.26 507.21 682.07 507.73 C 671.00 507.95 659.94 508.51 648.87 508.28 C 648.89 498.08 648.77 487.89 648.88 477.69 Z" />
<path fill="#121312" opacity="1.00" d=" M 719.66 476.80 C 720.50 476.79 722.17 476.76 723.00 476.74 C 724.75 487.82 729.83 498.04 736.88 506.69 C 731.12 506.73 725.36 506.94 719.61 506.83 C 719.73 496.82 719.96 486.81 719.66 476.80 Z" />
<path fill="#121312" opacity="1.00" d=" M 546.50 478.41 C 552.82 478.39 559.17 478.08 565.48 478.59 C 565.47 487.07 565.27 495.55 565.26 504.03 C 565.21 506.20 565.44 508.50 564.39 510.51 C 559.32 509.16 554.32 507.16 549.01 507.14 C 542.87 507.05 536.75 508.05 530.88 509.80 C 534.30 502.47 538.71 495.67 542.73 488.67 C 544.56 485.50 545.83 482.01 546.50 478.41 Z" />
<path fill="#121312" opacity="1.00" d=" M 570.48 478.39 C 588.30 478.02 606.12 477.80 623.94 477.69 C 630.66 477.99 637.37 476.92 644.09 477.66 C 644.01 487.91 643.99 498.17 643.71 508.42 C 619.36 509.50 595.00 509.90 570.64 510.27 C 570.49 499.64 570.47 489.01 570.48 478.39 Z" />
<path fill="#121312" opacity="1.00" d=" M 919.02 510.66 C 935.40 510.13 951.76 509.03 968.14 508.21 C 966.69 509.40 965.32 510.74 963.66 511.62 C 951.03 513.00 938.40 514.34 925.71 515.12 C 935.70 518.33 946.00 520.45 956.02 523.61 C 955.41 524.85 954.78 526.09 954.18 527.34 C 942.79 524.42 931.36 521.53 920.04 518.36 C 908.53 519.37 896.94 520.49 885.53 522.46 C 884.21 521.23 882.99 519.93 881.86 518.55 C 890.80 517.76 899.74 516.81 908.70 516.26 C 908.72 516.11 908.74 515.82 908.76 515.68 C 901.49 514.45 894.33 512.72 887.03 511.71 C 883.40 511.23 879.72 511.53 876.10 511.03 C 884.75 510.61 893.43 510.90 902.09 510.49 C 907.78 509.86 913.40 512.67 919.02 510.66 Z" />
<path fill="#121312" opacity="1.00" d=" M 689.01 514.13 C 706.71 513.52 724.43 512.93 742.13 512.97 C 744.45 513.91 746.19 515.85 748.16 517.36 C 736.77 515.57 725.29 516.67 713.88 517.43 C 701.06 517.89 688.25 518.48 675.43 519.06 C 688.98 526.34 703.83 530.81 717.75 537.32 C 719.72 538.16 721.69 539.45 723.96 539.05 C 743.00 537.39 762.03 535.69 781.07 533.98 C 789.22 531.96 797.15 535.94 805.23 536.71 C 798.26 537.66 791.23 538.03 784.26 538.99 C 797.14 545.02 810.82 549.24 824.11 554.32 C 827.78 554.91 831.48 553.67 835.15 553.35 C 845.04 551.91 855.08 551.61 864.95 549.89 C 870.90 550.26 876.78 552.54 882.81 551.48 C 886.72 550.72 891.40 550.53 894.21 547.29 C 895.51 545.90 895.20 543.87 895.50 542.14 C 899.06 542.94 902.69 543.62 906.05 545.14 C 920.66 542.99 935.34 541.56 949.99 539.73 C 949.71 541.15 949.45 542.59 949.22 544.03 C 944.50 544.20 939.86 545.12 935.18 545.67 C 928.38 546.39 921.55 547.00 914.87 548.44 C 926.53 552.89 938.62 556.19 950.25 560.74 C 951.64 562.14 951.64 564.35 952.39 566.11 C 941.55 563.15 931.18 558.76 920.44 555.51 C 914.31 553.69 908.34 550.95 902.06 549.89 C 879.17 553.63 856.04 555.39 833.00 557.79 C 836.79 560.75 841.50 562.07 845.67 564.38 C 851.04 567.14 857.23 568.54 862.00 572.32 C 858.44 572.42 854.88 572.10 851.37 571.60 C 846.19 570.27 841.54 567.50 836.63 565.48 C 834.54 564.60 832.25 565.22 830.11 565.46 C 805.50 568.14 780.84 570.27 756.23 572.90 C 761.01 575.49 765.87 577.98 770.29 581.19 C 766.59 580.85 762.44 582.09 759.14 579.92 C 754.14 577.12 749.00 574.60 744.11 571.61 C 735.05 572.04 726.06 573.22 717.02 573.84 C 705.68 575.06 694.27 575.48 682.96 577.00 C 677.79 577.71 672.48 577.32 667.37 578.48 C 667.11 578.76 666.59 579.33 666.33 579.61 C 663.32 579.66 660.30 579.85 657.30 579.59 C 650.38 574.87 643.14 570.61 635.99 566.25 C 605.98 569.12 575.91 571.24 545.88 573.87 C 539.63 575.17 533.27 575.62 526.90 575.62 C 528.44 573.51 529.87 571.33 531.29 569.14 C 537.39 569.09 543.45 568.25 549.53 567.81 C 575.73 566.24 601.85 563.70 628.04 561.97 C 614.72 554.09 600.93 546.94 587.84 538.67 C 577.22 539.25 566.59 540.10 555.95 540.09 C 560.68 536.19 566.61 533.11 569.22 527.25 C 570.94 523.84 569.79 519.80 567.82 516.78 C 577.90 516.64 587.97 516.30 598.04 515.76 C 628.36 515.00 658.69 514.75 689.01 514.13 M 598.02 519.91 C 605.65 526.05 615.21 529.23 623.39 534.59 C 626.21 535.91 628.61 538.91 632.02 538.24 C 638.98 537.55 645.95 536.82 652.94 536.26 C 666.68 535.54 680.28 533.23 693.98 532.03 C 681.22 527.27 668.75 521.72 655.92 517.18 C 647.95 517.14 640.01 518.26 632.03 518.17 C 620.69 518.82 609.32 518.78 598.02 519.91 M 593.11 536.49 C 596.38 538.54 599.86 540.23 603.22 542.14 C 609.46 541.36 615.76 540.46 622.08 540.15 C 619.98 537.85 617.09 536.14 614.14 535.23 C 607.12 535.42 600.10 535.83 593.11 536.49 M 684.37 537.98 C 688.06 540.26 692.02 542.16 696.09 543.69 C 702.10 542.12 708.28 541.45 714.42 540.52 C 710.65 538.90 706.90 537.23 703.10 535.72 C 696.83 536.13 690.64 537.43 684.37 537.98 M 612.26 545.77 C 612.23 545.96 612.16 546.34 612.13 546.53 C 627.28 555.61 643.07 563.64 657.86 573.34 C 683.68 572.03 709.40 569.24 735.17 567.24 C 716.01 557.44 695.75 549.86 676.86 539.52 C 655.37 542.04 633.81 543.84 612.26 545.77 M 703.83 546.48 C 715.64 552.73 728.12 557.71 740.01 563.83 C 743.27 565.45 746.39 567.50 749.90 568.55 C 776.17 565.66 802.53 563.82 828.81 561.09 C 816.63 555.81 804.08 551.48 791.97 546.05 C 786.24 543.88 780.94 540.45 774.87 539.29 C 751.21 541.91 727.44 543.46 703.83 546.48 Z" />
<path fill="#121312" opacity="1.00" d=" M 964.06 555.92 C 959.58 537.88 972.29 516.91 991.20 514.59 C 1001.76 514.13 1012.36 514.57 1022.95 514.45 C 1037.13 514.51 1051.33 514.25 1065.52 514.47 C 1058.87 517.66 1053.42 522.69 1048.86 528.39 C 1043.09 530.41 1036.90 530.43 1030.93 531.38 C 1025.15 532.39 1018.20 530.83 1014.04 536.05 C 1024.48 536.25 1034.95 536.25 1045.38 535.78 C 1041.57 543.75 1040.38 552.76 1041.39 561.50 C 1032.22 560.68 1023.03 560.24 1013.86 559.53 C 1015.61 562.53 1018.42 564.97 1021.95 565.48 C 1028.81 567.22 1035.90 567.74 1042.93 568.25 C 1044.43 573.69 1047.58 578.44 1051.38 582.55 C 1034.91 582.45 1018.45 582.40 1001.98 582.34 C 993.64 582.59 984.87 581.09 977.89 576.28 C 970.77 571.70 966.22 563.96 964.06 555.92 Z" />
<path fill="#121312" opacity="1.00" d=" M 1076.01 519.00 C 1082.39 516.50 1089.10 514.32 1096.04 514.55 C 1174.01 514.51 1251.99 514.46 1329.97 514.50 C 1345.71 515.53 1360.01 527.26 1364.54 542.33 C 1369.55 557.33 1365.02 574.81 1353.61 585.70 C 1346.66 592.78 1336.96 597.20 1326.99 597.24 C 1253.99 597.31 1180.99 597.21 1107.99 597.30 C 1100.06 597.18 1091.95 597.93 1084.27 595.48 C 1080.69 594.07 1077.31 592.16 1074.45 589.58 C 1070.53 585.90 1064.81 584.99 1061.19 580.90 C 1052.07 571.34 1048.42 556.54 1053.02 544.01 C 1056.11 532.58 1065.27 523.53 1076.01 519.00 M 1093.11 527.19 C 1079.35 529.45 1069.36 543.28 1070.39 556.99 C 1070.11 572.05 1083.65 586.43 1098.97 585.53 C 1174.32 585.46 1249.68 585.50 1325.03 585.45 C 1333.62 585.31 1342.02 581.02 1347.28 574.24 C 1355.70 564.02 1356.15 547.78 1347.67 537.47 C 1343.15 531.67 1336.41 527.24 1328.93 526.88 C 1271.30 527.00 1213.67 526.88 1156.04 526.92 C 1135.06 527.08 1114.05 526.48 1093.11 527.19 Z" />
<path fill="#121312" opacity="1.00" d=" M 1112.61 533.23 C 1179.02 533.07 1245.43 533.19 1311.84 533.16 C 1305.78 537.36 1300.90 543.62 1299.79 551.06 C 1297.21 562.00 1303.18 573.54 1312.59 579.20 C 1245.48 579.10 1178.36 579.29 1111.25 579.10 C 1117.75 575.13 1122.77 568.60 1124.01 561.00 C 1126.34 550.53 1121.34 539.25 1112.61 533.23 Z" />
<path fill="#121312" opacity="1.00" d=" M 1091.48 537.67 C 1096.25 535.82 1101.77 536.29 1106.25 538.74 C 1115.14 543.11 1119.17 555.04 1114.65 563.88 C 1112.06 569.70 1106.48 574.01 1100.14 574.81 C 1091.88 575.99 1083.07 570.67 1080.58 562.65 C 1078.69 556.77 1079.27 549.93 1082.67 544.71 C 1084.92 541.66 1087.96 539.11 1091.48 537.67 Z" />
<path fill="#121312" opacity="1.00" d=" M 1320.29 537.55 C 1326.73 535.30 1334.28 537.15 1339.07 541.97 C 1346.74 549.39 1346.38 563.39 1338.22 570.31 C 1333.76 574.32 1327.21 575.98 1321.41 574.38 C 1315.66 573.01 1311.03 568.43 1308.99 562.97 C 1304.65 553.42 1310.24 540.69 1320.29 537.55 Z" />
<path fill="#121312" opacity="1.00" d=" M 535.61 647.55 C 540.61 641.42 548.35 638.39 555.95 637.07 C 565.71 635.69 576.18 637.06 584.67 642.29 C 591.71 646.91 596.63 654.58 598.09 662.86 C 599.26 668.93 598.85 675.14 598.89 681.29 C 590.79 681.44 582.68 681.43 574.57 681.41 C 574.23 675.47 575.48 669.02 572.39 663.60 C 568.60 656.77 556.81 657.25 553.67 664.46 C 551.64 669.36 551.96 674.80 551.91 680.01 C 551.96 696.67 551.88 713.33 551.96 730.00 C 552.20 734.58 552.21 739.81 555.53 743.40 C 560.91 748.64 571.86 746.65 574.05 739.12 C 575.85 732.38 574.93 725.30 575.13 718.41 C 571.05 718.32 566.97 718.42 562.90 718.18 C 562.77 711.44 562.67 704.69 562.95 697.96 C 574.87 697.78 586.85 697.48 598.74 698.05 L 599.11 698.93 C 599.44 708.93 599.10 718.96 599.26 728.97 C 599.35 737.54 598.26 746.77 592.83 753.75 C 581.35 768.23 559.28 772.55 543.02 763.95 C 535.11 759.86 530.30 751.55 528.46 743.06 C 526.51 735.17 527.19 727.00 527.09 718.96 C 527.09 703.63 527.04 688.30 527.11 672.96 C 527.62 664.00 529.48 654.47 535.61 647.55 Z" />
<path fill="#121312" opacity="1.00" d=" M 621.20 646.29 C 627.95 639.01 638.30 636.44 647.92 636.59 C 657.53 636.85 667.74 640.42 673.58 648.44 C 679.68 656.34 680.04 666.91 679.51 676.46 C 672.04 677.00 664.46 676.89 656.97 676.82 C 655.66 673.24 657.10 668.78 655.60 665.03 C 653.97 657.38 641.42 656.17 638.45 663.38 C 636.14 669.55 637.06 677.22 641.91 681.96 C 651.82 691.91 665.39 697.71 674.11 708.95 C 679.87 716.26 681.33 725.93 681.12 735.00 C 680.95 744.14 678.02 753.74 671.01 759.97 C 662.73 767.52 650.70 769.23 639.95 767.76 C 630.13 766.78 620.27 761.20 616.05 751.99 C 612.11 744.20 612.07 735.18 612.66 726.68 C 620.54 726.48 628.43 726.73 636.31 726.66 C 636.66 731.54 635.75 736.68 637.76 741.32 C 640.66 748.31 652.35 748.39 655.61 741.69 C 658.41 734.72 657.04 725.88 651.14 720.91 C 642.21 713.09 631.63 707.27 623.36 698.67 C 617.35 692.30 613.47 683.84 613.04 675.05 C 612.32 664.99 614.07 653.91 621.20 646.29 Z" />
<path fill="#121312" opacity="1.00" d=" M 701.24 648.20 C 706.82 640.81 716.16 637.39 725.13 636.69 C 737.07 635.61 750.19 639.49 757.72 649.28 C 764.41 658.44 765.19 670.39 764.33 681.33 C 756.19 681.34 748.06 681.46 739.93 681.33 C 739.66 675.55 740.70 669.37 738.18 663.95 C 734.72 656.51 721.74 657.37 719.34 665.23 C 717.57 670.98 718.26 677.08 718.12 683.01 C 718.15 698.67 718.14 714.34 718.16 730.00 C 718.27 734.43 718.46 739.24 721.08 743.01 C 726.20 748.34 737.20 746.89 739.53 739.41 C 741.71 732.60 740.29 725.33 740.78 718.32 C 736.76 718.34 732.74 718.40 728.72 718.24 C 728.75 711.45 728.54 704.65 728.95 697.87 C 739.29 697.61 749.64 697.81 759.99 697.82 C 761.51 697.92 763.16 697.57 764.61 698.21 C 765.23 706.46 764.66 714.77 764.86 723.04 C 764.94 733.38 764.95 744.77 758.30 753.35 C 747.66 768.19 725.96 772.48 709.92 764.41 C 703.81 761.35 699.09 755.88 696.59 749.57 C 693.66 742.12 693.10 734.01 693.24 726.09 C 693.25 710.04 693.23 693.99 693.24 677.94 C 693.21 667.60 694.51 656.51 701.24 648.20 Z" />
<path fill="#121312" opacity="1.00" d=" M 175.00 639.11 C 185.39 638.55 195.80 639.06 206.20 638.82 C 210.93 662.92 216.04 686.95 221.04 710.99 C 224.44 729.46 228.90 747.74 231.69 766.32 C 223.37 766.52 215.04 766.55 206.72 766.36 C 205.47 758.75 204.01 751.17 202.94 743.53 C 194.99 743.50 187.04 743.41 179.09 743.52 C 177.80 751.16 176.66 758.81 175.24 766.42 C 167.12 766.46 158.99 766.74 150.89 766.26 C 158.34 723.77 167.24 681.54 175.00 639.11 M 190.45 672.85 C 188.18 689.42 184.93 705.83 182.60 722.38 C 188.20 722.40 193.79 722.42 199.39 722.47 C 196.52 705.34 193.54 688.22 191.09 671.03 C 190.81 671.61 190.60 672.21 190.45 672.85 Z" />
<path fill="#121312" opacity="1.00" d=" M 244.25 639.26 C 251.47 638.40 258.78 639.11 266.04 638.82 C 267.31 639.06 269.43 638.19 270.04 639.81 C 278.17 662.21 286.15 684.70 294.32 707.08 C 294.23 685.38 294.26 663.67 294.26 641.97 C 294.34 640.85 293.97 638.49 295.88 638.90 C 303.17 638.93 310.48 638.59 317.75 639.10 C 317.93 681.45 317.81 723.81 317.82 766.16 C 309.79 766.80 301.72 766.33 293.67 766.47 C 287.49 749.90 281.61 733.20 275.42 716.63 C 272.87 709.76 270.71 702.70 267.74 696.02 C 268.06 719.40 267.84 742.79 267.83 766.17 C 259.95 766.56 252.00 766.80 244.13 766.19 C 244.32 723.88 244.03 681.57 244.25 639.26 Z" />
<path fill="#121312" opacity="1.00" d=" M 336.16 638.97 C 344.48 638.76 352.80 638.86 361.11 638.93 C 361.21 674.03 361.19 709.14 361.16 744.24 C 371.23 744.60 381.33 743.85 391.37 744.57 C 391.31 751.83 391.49 759.10 391.30 766.36 C 377.20 766.65 363.10 766.36 349.00 766.47 C 344.69 766.44 340.37 766.67 336.08 766.22 C 335.91 725.13 336.06 684.04 335.96 642.95 C 336.00 641.62 336.06 640.29 336.16 638.97 Z" />
<path fill="#121312" opacity="1.00" d=" M 443.18 639.08 C 455.78 638.56 468.44 638.98 481.07 638.86 C 491.62 639.02 502.19 638.52 512.73 639.13 C 512.84 646.37 512.67 653.61 512.79 660.86 C 502.48 660.90 492.17 660.91 481.86 660.95 C 481.93 671.10 481.79 681.25 481.88 691.40 C 490.67 691.41 499.48 691.26 508.27 691.63 C 508.11 698.83 508.45 706.04 508.16 713.25 C 499.43 713.61 490.67 713.47 481.93 713.48 C 481.81 723.74 481.87 734.00 481.85 744.26 C 492.36 744.43 502.88 744.14 513.38 744.48 C 514.07 751.48 513.61 758.64 513.58 765.70 L 513.11 766.29 C 494.63 766.72 476.13 766.32 457.64 766.44 C 457.25 758.68 457.51 750.90 457.43 743.13 C 448.91 743.28 440.40 743.00 431.88 743.20 C 429.59 751.02 426.81 758.68 424.23 766.41 C 416.00 766.58 407.76 766.53 399.52 766.38 C 412.28 726.10 426.56 686.31 440.48 646.42 C 441.36 643.96 441.97 641.40 443.18 639.08 M 438.28 721.76 C 444.65 721.68 451.02 721.72 457.39 721.65 C 457.26 703.04 457.82 684.40 457.17 665.82 C 450.79 684.44 444.33 703.03 438.28 721.76 Z" />
<path fill="#121312" opacity="1.00" d=" M 798.55 639.20 C 807.33 638.52 816.15 638.96 824.95 638.83 C 826.18 639.09 828.78 638.13 828.93 640.08 C 834.12 667.73 839.54 695.35 844.91 722.98 C 847.42 737.46 850.71 751.81 852.87 766.35 C 844.80 766.47 836.73 766.45 828.66 766.37 C 827.32 758.73 826.07 751.08 824.89 743.42 C 817.16 743.61 809.42 743.16 801.70 743.56 C 800.52 751.13 799.27 758.69 798.00 766.25 C 789.94 766.66 781.85 766.47 773.78 766.32 C 781.95 723.93 790.59 681.63 798.55 639.20 M 812.98 672.05 C 810.98 688.91 807.47 705.56 805.10 722.37 C 810.61 722.39 816.13 722.38 821.65 722.41 C 819.21 705.58 816.04 688.87 813.75 672.03 L 812.98 672.05 Z" />
<path fill="#121312" opacity="1.00" d=" M 864.19 639.06 C 874.43 638.68 884.69 638.94 894.94 638.85 C 904.12 638.82 914.04 640.42 921.01 646.92 C 927.91 652.83 930.36 662.24 930.87 670.98 C 930.99 681.16 931.92 691.93 927.34 701.38 C 925.21 706.39 921.09 710.16 916.44 712.81 C 922.26 730.56 928.16 748.29 933.86 766.07 C 925.62 766.97 917.27 766.33 908.99 766.28 C 904.54 750.12 899.62 734.09 895.09 717.94 C 892.67 717.90 890.26 717.88 887.86 717.87 C 887.73 733.98 887.87 750.10 887.81 766.21 C 879.89 766.67 871.93 766.62 864.01 766.25 C 864.02 730.85 863.93 695.45 864.07 660.05 C 864.17 653.05 863.61 646.04 864.19 639.06 M 887.88 660.92 C 887.80 672.92 887.84 684.93 887.89 696.94 C 892.07 697.10 896.37 697.37 900.46 696.23 C 903.32 695.44 905.32 692.90 906.01 690.09 C 907.36 684.85 906.85 679.37 906.87 674.01 C 906.77 670.13 906.20 665.61 903.01 662.99 C 898.59 659.86 892.92 661.05 887.88 660.92 Z" />
<path fill="#121312" opacity="1.00" d=" M 938.22 639.05 C 959.57 638.61 980.96 638.94 1002.32 638.88 C 1002.58 646.21 1002.50 653.57 1002.25 660.90 C 995.61 661.03 988.97 660.70 982.34 661.06 C 982.54 696.16 982.49 731.26 982.37 766.36 C 974.46 766.49 966.54 766.56 958.63 766.41 C 958.19 731.27 958.59 696.10 958.38 660.95 C 951.65 660.81 944.93 661.05 938.20 660.84 C 938.25 653.58 938.10 646.31 938.22 639.05 Z" />
<path fill="#121312" opacity="1.00" d=" M 1013.37 645.98 C 1013.34 643.60 1013.40 641.23 1013.72 638.88 C 1021.83 638.86 1029.96 638.81 1038.08 638.86 C 1045.86 661.47 1053.73 684.06 1061.68 706.60 C 1061.76 684.09 1061.49 661.57 1061.80 639.06 C 1069.28 638.63 1076.77 638.90 1084.26 638.87 C 1084.64 667.57 1084.22 696.28 1084.43 724.98 C 1084.32 738.76 1084.59 752.55 1084.30 766.34 C 1076.54 766.59 1068.77 766.52 1061.01 766.34 C 1052.91 742.81 1044.50 719.38 1036.31 695.88 C 1036.29 719.33 1036.52 742.80 1036.23 766.26 C 1028.70 766.56 1021.15 766.58 1013.61 766.43 C 1012.94 756.96 1013.57 747.45 1013.36 737.97 C 1013.44 707.31 1013.35 676.64 1013.37 645.98 Z" />
<path fill="#121312" opacity="1.00" d=" M 1101.28 640.83 C 1100.70 638.47 1103.52 638.87 1105.00 638.84 C 1121.74 639.00 1138.49 638.53 1155.22 639.07 C 1155.45 646.34 1155.20 653.62 1155.26 660.90 C 1145.33 660.85 1135.41 660.96 1125.49 660.94 C 1125.60 671.10 1125.52 681.25 1125.55 691.41 C 1133.87 691.44 1142.18 691.33 1150.50 691.49 C 1150.59 698.79 1150.78 706.10 1150.38 713.40 C 1142.10 713.42 1133.82 713.45 1125.54 713.49 C 1125.50 723.73 1125.52 733.97 1125.57 744.22 C 1135.52 744.58 1145.52 743.92 1155.45 744.57 C 1156.04 751.61 1155.80 758.76 1155.67 765.84 C 1154.43 767.04 1152.46 766.26 1150.94 766.52 C 1135.62 766.45 1120.30 766.42 1104.99 766.49 C 1103.78 766.22 1100.96 767.12 1101.31 765.00 C 1101.19 723.62 1101.23 682.22 1101.28 640.83 Z" />
<path fill="#121312" opacity="1.00" d=" M 1169.32 648.00 C 1169.34 644.95 1169.03 641.85 1169.70 638.85 C 1181.81 639.05 1193.92 638.53 1206.02 639.08 C 1215.92 639.53 1226.16 644.09 1231.17 653.00 C 1236.71 662.99 1236.34 674.89 1235.91 685.95 C 1235.63 696.44 1231.24 707.81 1221.42 712.80 C 1225.47 724.75 1229.29 736.77 1233.13 748.78 C 1234.92 754.65 1237.35 760.35 1238.46 766.41 C 1230.39 766.42 1222.30 766.66 1214.24 766.30 C 1209.74 750.18 1204.82 734.18 1200.16 718.11 C 1197.83 718.05 1195.51 717.98 1193.21 717.89 C 1193.07 734.00 1193.23 750.12 1193.15 766.24 C 1185.32 766.87 1177.46 766.23 1169.62 766.49 C 1168.80 756.70 1169.52 746.83 1169.27 737.01 C 1169.28 707.34 1169.29 677.67 1169.32 648.00 M 1193.19 661.02 C 1193.11 673.02 1193.19 685.03 1193.18 697.03 C 1197.69 696.97 1202.50 697.76 1206.73 695.73 C 1209.64 694.35 1211.19 691.19 1211.64 688.12 C 1212.33 683.42 1212.14 678.66 1212.04 673.93 C 1211.80 670.03 1211.28 665.51 1208.01 662.90 C 1203.72 659.81 1198.10 661.05 1193.19 661.02 Z" />
<path fill="#121312" opacity="1.00" d=" M 1250.36 639.39 C 1254.17 638.44 1258.12 639.00 1262.01 638.86 C 1275.71 638.96 1289.42 638.57 1303.11 639.07 C 1303.46 646.32 1303.22 653.59 1303.18 660.85 C 1293.49 661.06 1283.80 660.69 1274.13 661.09 C 1274.18 671.22 1274.22 681.35 1274.13 691.48 C 1282.28 691.58 1290.43 691.23 1298.59 691.41 C 1298.77 698.73 1298.99 706.10 1298.45 713.42 C 1290.35 713.32 1282.25 713.43 1274.16 713.39 C 1274.14 723.69 1274.24 733.98 1274.18 744.28 C 1282.78 744.34 1291.38 744.42 1299.99 744.28 C 1301.29 744.37 1302.84 744.01 1303.99 744.93 C 1304.38 752.02 1303.73 759.12 1303.96 766.22 C 1286.19 766.76 1268.39 766.39 1250.61 766.40 C 1249.95 757.61 1250.52 748.77 1250.32 739.95 C 1250.36 706.43 1250.36 672.91 1250.36 639.39 Z" />
<path fill="#121312" opacity="1.00" d=" M 1317.14 639.06 C 1324.78 638.56 1332.45 638.99 1340.11 638.89 C 1346.84 658.87 1353.92 678.74 1360.23 698.85 C 1361.10 701.38 1361.54 704.12 1363.03 706.41 C 1362.98 683.96 1363.00 661.50 1363.18 639.04 C 1370.22 638.71 1377.29 638.81 1384.34 638.88 C 1384.48 681.38 1384.63 723.88 1384.33 766.38 C 1376.94 766.48 1369.54 766.67 1362.17 766.27 C 1356.07 746.55 1349.01 727.14 1342.53 707.54 C 1341.06 703.98 1340.40 700.09 1338.49 696.73 C 1338.99 719.86 1338.61 743.01 1338.74 766.15 C 1331.48 766.69 1324.17 766.59 1316.91 766.24 C 1317.26 723.85 1316.77 681.45 1317.14 639.06 Z" />
</g>
</svg>
